<svg fill="#000000" xmlns="http://www.w3.org/2000/svg"  viewBox="0 0 32 32" width="64px" height="64px"><path d="M 8.5 6 C 7.175781 6 5.980469 6.839844 5.5625 8.09375 L 3.0625 15.6875 L 3.125 15.71875 C 3.050781 15.953125 3 16.210938 3 16.46875 L 3 23.53125 C 3 24.882813 4.117188 26 5.46875 26 L 26.53125 26 C 27.882813 26 29 24.882813 29 23.53125 L 29 16.46875 C 29 16.210938 28.949219 15.953125 28.875 15.71875 L 28.9375 15.6875 L 26.4375 8.09375 C 26.019531 6.839844 24.824219 6 23.5 6 Z M 8.5 8 L 23.5 8 C 23.96875 8 24.382813 8.304688 24.53125 8.75 L 26.28125 14 L 5.71875 14 L 7.46875 8.75 C 7.617188 8.304688 8.03125 8 8.5 8 Z M 7 16 L 25 16 L 16 22.75 Z M 5 17 L 6.84375 18.375 C 6.332031 18.738281 6 19.324219 6 20 C 6 21.105469 6.894531 22 8 22 C 8.875 22 9.601563 21.4375 9.875 20.65625 L 14.3125 24 L 5.46875 24 C 5.199219 24 5 23.800781 5 23.53125 Z M 27 17 L 27 23.53125 C 27 23.800781 26.800781 24 26.53125 24 L 17.6875 24 L 22.125 20.65625 C 22.398438 21.4375 23.125 22 24 22 C 25.105469 22 26 21.105469 26 20 C 26 19.324219 25.667969 18.738281 25.15625 18.375 Z"/></svg>