<svg xmlns="http://www.w3.org/2000/svg"  viewBox="0 0 128 128" width="512px" height="512px"><path fill="#464c54" d="M86,9H32c-5.5,0-10,4.5-10,10v90c0,5.5,4.5,10,10,10h64c5.5,0,10-4.5,10-10V29C106,18,97,9,86,9z"/><path fill="#fff" d="M106 29H96c-5.5 0-10-4.5-10-10V9h0C97 9 106 18 106 29L106 29zM83.7 62.6c.2-1.2.2-2.4.2-3.5 0-12.3-9.4-22.2-20.9-22.2 0 0 0 0 0 0s0 0 0 0C51.4 36.8 42 46.8 42 59c0 1.1.1 2.3.2 3.5-.9 1.8-1.3 3.8-1.2 5.9.2 4.4 2.8 8.1 6.5 9.8 3.4 6.8 7.7 12.9 11 16.6 1.2 1.4 2.8 2 4.4 2 1.6 0 3.2-.7 4.4-2 3.2-3.8 7.6-9.9 11-16.6 3.6-1.7 6.3-5.4 6.5-9.8C85 66.3 84.5 64.3 83.7 62.6z"/><path fill="#464c54" d="M45.8 68.1c.2 3.4 3 6 6.2 6h4.9c2.1 0 3.5-2.1 2.8-4.2-1.2-3.7-3.6-5.3-8-5.3C48.4 64.6 45.6 64.5 45.8 68.1zM80 68.1c-.2 3.4-3 6-6.2 6h-4.9c-2.1 0-3.5-2.1-2.8-4.2 1.2-3.7 3.6-5.3 8-5.3C77.5 64.6 80.2 64.5 80 68.1z"/><g><path fill="#444b54" d="M109,28.6c-0.1-6-2.5-11.6-6.7-15.9C97.9,8.4,92.2,6,86,6c0,0,0,0,0,0H32c-7.2,0-13,5.8-13,13v90c0,7.3,5.9,13,11,13h63.8c8.7,0,15-5.5,15-13l0.1-79.5c0-0.2,0.1-0.4,0.1-0.6C109,28.9,109,28.7,109,28.6z M102.7,26H96c-3.9,0-7-3.1-7-7v-6.7c3.4,0.6,6.5,2.2,9,4.7C100.5,19.5,102.1,22.6,102.7,26z M102.8,109c0,4.2-3.6,7-9,7H30c-1.7,0-5-3-5-7V19c0-3.9,3.1-7,7-7h51v7c0,7.2,5.8,13,13,13h6.9L102.8,109z"/><path fill="#444b54" d="M65.9,85.3h-6c-0.8,0-1.5,0.7-1.5,1.5s0.7,1.5,1.5,1.5h6c0.8,0,1.5-0.7,1.5-1.5S66.7,85.3,65.9,85.3z"/></g></svg>